<svg xmlns="http://www.w3.org/2000/svg" xmlns:xlink="http://www.w3.org/1999/xlink" width="500" zoomAndPan="magnify" viewBox="0 0 375 374.999991" height="500" preserveAspectRatio="xMidYMid meet" version="1.0"><defs><clipPath id="9cf1faaa3d"><path d="M 0 28.671875 L 375 28.671875 L 375 346.671875 L 0 346.671875 Z M 0 28.671875 " clip-rule="nonzero"/></clipPath></defs><g clip-path="url(#9cf1faaa3d)"><path fill="#dc5f00" d="M 240.097656 290.683594 C 240.097656 301.039062 231.710938 309.429688 221.355469 309.429688 C 210.996094 309.429688 202.609375 301.039062 202.609375 290.683594 L 202.609375 106.5625 C 202.609375 96.207031 210.996094 87.820312 221.355469 87.820312 C 231.710938 87.820312 240.097656 96.207031 240.097656 106.5625 L 240.097656 121.285156 C 240.097656 129.503906 246.863281 136.265625 255.078125 136.265625 C 263.296875 136.265625 270.058594 129.503906 270.058594 121.285156 L 270.058594 81.3125 C 270.058594 70.957031 278.445312 62.566406 288.804688 62.566406 C 299.160156 62.566406 307.550781 70.957031 307.550781 81.3125 L 307.550781 122.058594 C 307.550781 130.273438 314.3125 137.035156 322.527344 137.035156 C 330.746094 137.035156 337.507812 130.273438 337.507812 122.058594 C 337.507812 111.699219 345.898438 103.3125 356.253906 103.3125 C 366.613281 103.3125 375 111.699219 375 122.058594 L 375 163.570312 C 375 173.929688 366.613281 182.316406 356.253906 182.316406 C 345.898438 182.316406 337.507812 173.929688 337.507812 163.570312 C 337.507812 155.355469 330.746094 148.59375 322.527344 148.59375 C 314.3125 148.59375 307.550781 155.355469 307.550781 163.570312 L 307.550781 204.402344 C 307.550781 214.757812 299.160156 223.148438 288.804688 223.148438 C 278.445312 223.148438 270.058594 214.757812 270.058594 204.402344 L 270.058594 177.183594 C 270.058594 168.964844 263.296875 162.203125 255.078125 162.203125 C 246.863281 162.203125 240.097656 168.964844 240.097656 177.183594 Z M 221.355469 66.25 C 231.710938 66.25 240.097656 57.859375 240.097656 47.503906 C 240.097656 37.144531 231.710938 28.757812 221.355469 28.757812 C 210.996094 28.757812 202.609375 37.144531 202.609375 47.503906 C 202.609375 57.859375 210.996094 66.25 221.355469 66.25 Z M 153.816406 308.742188 C 164.175781 308.742188 172.5625 317.132812 172.5625 327.488281 C 172.5625 337.847656 164.175781 346.234375 153.816406 346.234375 C 143.460938 346.234375 135.070312 337.847656 135.070312 327.488281 C 135.070312 317.132812 143.460938 308.742188 153.816406 308.742188 Z M 135.070312 84.308594 L 135.070312 197.808594 C 135.070312 206.027344 128.308594 212.789062 120.09375 212.789062 C 111.875 212.789062 105.113281 206.027344 105.113281 197.808594 L 105.113281 170.589844 C 105.113281 160.234375 96.722656 151.84375 86.367188 151.84375 C 76.011719 151.84375 67.621094 160.234375 67.621094 170.589844 L 67.621094 211.421875 C 67.621094 219.636719 60.859375 226.398438 52.640625 226.398438 C 44.425781 226.398438 37.664062 219.636719 37.664062 211.421875 C 37.664062 201.0625 29.273438 192.675781 18.917969 192.675781 C 8.386719 192.675781 0 201.0625 0 211.421875 L 0 252.933594 C 0 263.292969 8.386719 271.679688 18.746094 271.679688 C 29.101562 271.679688 37.492188 263.292969 37.492188 252.933594 C 37.492188 244.71875 44.253906 237.957031 52.472656 237.957031 C 60.6875 237.957031 67.449219 244.71875 67.449219 252.933594 L 67.449219 293.765625 C 67.449219 304.121094 75.839844 312.511719 86.195312 312.511719 C 96.554688 312.511719 104.941406 304.121094 104.941406 293.765625 L 104.941406 253.707031 C 104.941406 245.488281 111.703125 238.726562 119.921875 238.726562 C 128.136719 238.726562 134.902344 245.488281 134.902344 253.707031 L 134.902344 268.429688 C 134.902344 278.785156 143.289062 287.171875 153.644531 287.171875 C 164.003906 287.171875 172.390625 278.785156 172.390625 268.429688 L 172.390625 84.308594 C 172.390625 73.953125 164.003906 65.5625 153.644531 65.5625 C 143.460938 65.5625 135.070312 73.953125 135.070312 84.308594 Z M 135.070312 84.308594 " fill-opacity="1" fill-rule="evenodd"/></g></svg>